# Blender 4.2.3 LTS
# www.blender.org
mtllib diamond.mtl
o Sphere
v 0.707107 0.000000 -0.707107
v 0.478086 -0.381694 -0.478086
v 1.000000 0.000000 0.000000
v 0.676116 -0.381694 0.000000
v 0.707107 0.000000 0.707107
v 0.478086 -0.381694 0.478086
v 0.000000 0.000000 1.000000
v 0.000000 -0.381694 0.676116
v -0.707107 0.000000 0.707107
v -0.478086 -0.381694 0.478086
v 0.000000 -1.000000 0.000000
v -1.000000 0.000000 0.000000
v -0.676116 -0.381694 0.000000
v -0.707107 0.000000 -0.707107
v -0.478086 -0.381694 -0.478086
v 0.000000 0.000000 -1.000000
v 0.000000 -0.381694 -0.676116
v 0.626453 0.275369 -0.626453
v 0.494772 0.393746 -0.494772
v 0.699714 0.393746 -0.000000
v 0.885938 0.275369 0.000000
v 0.494772 0.393746 0.494772
v 0.626453 0.275369 0.626453
v 0.000000 0.393746 0.699714
v 0.000000 0.275369 0.885938
v -0.494772 0.393746 0.494772
v -0.626453 0.275369 0.626453
v -0.699714 0.393746 0.000000
v -0.885938 0.275369 0.000000
v -0.494772 0.393746 -0.494772
v -0.626453 0.275369 -0.626453
v 0.000000 0.393746 -0.699714
v 0.000000 0.275369 -0.885938
vn 0.3012 -0.6170 -0.7271
vn 0.2692 -0.7107 -0.6499
vn 0.3574 0.3574 0.8629
vn 0.7271 -0.6170 -0.3012
vn 0.6499 -0.7107 -0.2692
vn 0.7271 -0.6170 0.3012
vn 0.6499 -0.7107 0.2692
vn -0.3574 0.3574 0.8629
vn 0.3012 -0.6170 0.7271
vn 0.2692 -0.7107 0.6499
vn -0.8629 0.3574 0.3574
vn -0.8629 0.3574 -0.3574
vn -0.3012 -0.6170 0.7271
vn -0.2692 -0.7107 0.6499
vn -0.6499 -0.7107 0.2692
vn -0.3574 0.3574 -0.8629
vn -0.7271 -0.6170 0.3012
vn -0.6499 -0.7107 -0.2692
vn -0.7271 -0.6170 -0.3012
vn -0.2692 -0.7107 -0.6499
vn -0.3012 -0.6170 -0.7271
vn 0.8629 0.3574 0.3574
vn 0.3574 0.3574 -0.8629
vn -0.0000 1.0000 -0.0000
vn 0.5237 0.8238 -0.2169
vn 0.5237 0.8238 0.2169
vn 0.2169 0.8238 0.5237
vn -0.2169 0.8238 0.5237
vn -0.5237 0.8238 0.2169
vn -0.5237 0.8238 -0.2169
vn -0.2169 0.8238 -0.5237
vn 0.2169 0.8238 -0.5237
vn 0.8629 0.3574 -0.3574
vt 0.750000 0.323605
vt 0.750000 0.500000
vt 0.625000 0.500000
vt 0.625000 0.323605
vt 0.687500 0.000000
vt 0.375000 0.500000
vt 0.375000 0.597358
vt 0.250000 0.597358
vt 0.250000 0.500000
vt 0.500000 0.500000
vt 0.500000 0.323605
vt 0.562500 0.000000
vt 0.375000 0.323605
vt 0.437500 0.000000
vt 0.125000 0.597358
vt 0.125000 0.500000
vt 0.250000 0.323605
vt 0.312500 0.000000
vt 0.000000 0.597358
vt 0.000000 0.500000
vt 1.000000 0.500000
vt 1.000000 0.597358
vt 0.875000 0.597358
vt 0.875000 0.500000
vt 0.125000 0.323605
vt 0.187500 0.000000
vt 0.062500 0.000000
vt 0.017688 0.323605
vt 0.750000 0.597358
vt 0.937500 0.000000
vt 0.982312 0.323605
vt 0.875000 0.323605
vt 0.812500 0.000000
vt 0.500000 0.597358
vt 0.375000 0.597358
vt 0.750000 0.597358
vt 0.625000 0.597358
vt 0.712568 0.650366
vt 0.736873 0.719394
vt 0.138127 0.650366
vt 0.162432 0.641271
vt 0.268832 0.640645
vt 0.380880 0.640513
vt 0.494120 0.640645
vt 0.606168 0.641271
vt 0.500000 0.597358
vt 0.875000 0.750000
vt 0.000000 0.639210
vt 0.750000 0.639210
s 0
f 17/1/1 16/2/1 1/3/1 2/4/1
f 11/5/2 17/1/2 2/4/2
f 5/6/3 23/7/3 25/8/3 7/9/3
f 2/4/4 1/3/4 3/10/4 4/11/4
f 11/12/5 2/4/5 4/11/5
f 4/11/6 3/10/6 5/6/6 6/13/6
f 11/14/7 4/11/7 6/13/7
f 7/9/8 25/8/8 27/15/8 9/16/8
f 6/13/9 5/6/9 7/9/9 8/17/9
f 11/18/10 6/13/10 8/17/10
f 9/16/11 27/15/11 29/19/11 12/20/11
f 12/21/12 29/22/12 31/23/12 14/24/12
f 8/17/13 7/9/13 9/16/13 10/25/13
f 11/26/14 8/17/14 10/25/14
f 11/27/15 10/25/15 13/28/15
f 14/24/16 31/23/16 33/29/16 16/2/16
f 10/25/17 9/16/17 12/20/17 13/28/17
f 11/30/18 13/31/18 15/32/18
f 13/31/19 12/21/19 14/24/19 15/32/19
f 11/33/20 15/32/20 17/1/20
f 15/32/21 14/24/21 16/2/21 17/1/21
f 3/10/22 21/34/22 23/35/22 5/6/22
f 16/2/23 33/36/23 18/37/23 1/3/23
f 32/38/24 30/39/24 28/40/24 26/41/24 24/42/24 22/43/24 20/44/24 19/45/24
f 21/46/25 18/37/25 19/45/25 20/44/25
f 23/35/26 21/34/26 20/44/26 22/43/26
f 25/8/27 23/7/27 22/43/27 24/42/27
f 27/15/28 25/8/28 24/42/28 26/41/28
f 29/19/29 27/15/29 26/41/29 28/40/29
f 31/47/30 29/48/30 28/40/30 30/39/30
f 33/49/31 31/47/31 30/39/31 32/38/31
f 18/37/32 33/36/32 32/38/32 19/45/32
f 1/3/33 18/37/33 21/46/33 3/10/33
